<svg xmlns="http://www.w3.org/2000/svg" width="32" height="32" viewBox="0 0 32 32">
  <defs>
    <linearGradient id="support-a" x1="7" y1="4" x2="25" y2="28" gradientUnits="userSpaceOnUse">
      <stop stop-color="#B7F7D2"/>
      <stop offset="1" stop-color="#20B486"/>
    </linearGradient>
    <filter id="support-s" x="1" y="1" width="30" height="30" color-interpolation-filters="sRGB">
      <feDropShadow dx="0" dy="4" stdDeviation="3" flood-color="#20B486" flood-opacity=".25"/>
    </filter>
  </defs>
  <g filter="url(#support-s)">
    <circle cx="16" cy="16" r="11" fill="url(#support-a)"/>
    <path d="M9.5 16a6.5 6.5 0 0 1 13 0" stroke="#fff" stroke-width="2" stroke-linecap="round"/>
    <path d="M8.5 16h3v5h-3a2 2 0 0 1-2-2v-1a2 2 0 0 1 2-2ZM20.5 16h3a2 2 0 0 1 2 2v1a2 2 0 0 1-2 2h-3v-5Z" fill="#fff" fill-opacity=".9"/>
    <path d="M20 21c-.5 1.4-2 2.2-4.1 2.2" stroke="#fff" stroke-width="1.8" stroke-linecap="round"/>
    <path d="M10 8.8c2.5-2.4 7.8-3.4 11.4.3" stroke="#fff" stroke-opacity=".45" stroke-width="1.4" stroke-linecap="round"/>
  </g>
</svg>
